  <svg
    width="20"
    height="20"
    viewBox="0 0 512 512"
    fill="none"
    xmlns="http://www.w3.org/2000/svg"
  >
    <rect x="167.596" y="411.109" width="207.997" height="85.957" fill="#F4B2B0" />
    <path
      d="M375.598 512h-208c-8.251 0-14.941-6.689-14.941-14.941v-85.956c0-8.252 6.691-14.941 14.941-14.941h208c8.251 0 14.941 6.689 14.941 14.941v85.956c0 8.252-6.691 14.941-14.941 14.941zm-193.059-29.883h178.118v-56.073H182.539v56.073z"
      fill="#B3404A"
    />
    <path
      d="M156.967 360.457c-6.331 0-12.207-4.055-14.232-10.41l-37.921-119.034c-7.734-24.232 5.687-50.256 29.917-58.005 11.748-3.752 24.248-2.704 35.206 2.945 10.961 5.651 19.062 15.231 22.811 26.975l14.847 46.201c2.524 7.856-1.797 16.273-9.654 18.796-7.861 2.525-16.273-1.799-18.796-9.654l-14.855-46.228c-1.33-4.164-4.184-7.538-8.046-9.53-3.868-1.993-8.276-2.362-12.418-1.04-8.539 2.731-13.271 11.911-10.543 20.462l37.924 119.043c2.506 7.862-1.838 16.267-9.701 18.771-1.969.638-3.499.867-5 .867z"
      fill="#B3404A"
    />
    <path
      d="M394.433 360.452c-8.251 0-14.941-6.689-14.941-14.941v-139.88c0-9.413-7.657-17.07-17.07-17.07h-106.63c-8.251 0-14.941-6.689-14.941-14.941V46.154c0-8.971-7.299-16.271-16.271-16.271s-16.271 7.299-16.271 16.271v94.991c0 8.252-6.691 14.941-14.941 14.941-8.251 0-14.941-6.689-14.941-14.941V46.154C178.425 20.704 199.13 0 224.579 0s46.154 20.704 46.154 46.154v112.526h91.689c25.89 0 46.953 21.063 46.953 46.953v139.88c0 8.252-6.689 14.941-14.941 14.941z"
      fill="#B3404A"
    />
  </svg>